<svg version="1.2" xmlns="http://www.w3.org/2000/svg" viewBox="0 0 1914 449" width="1914" height="449">
	<title>Untitled-1</title>
	<defs>
		<filter x="-50%" y="-50%" width="200%" height="200%" id="f1" ><feDropShadow dx="15.426902632476946" dy="18.385066634855473" stdDeviation="0" flood-color="#000000" flood-opacity=".8"/></filter>
	</defs>
	<style>
		.s0 { filter: url(#f1);fill: #2bc5b4;stroke: #000000;stroke-width: 0 } 
	</style>
	<path id="Rectangle 1" class="s0" d="m20.5 35h1872c0.3 0 0.5 0.2 0.5 0.5v377c0 0.3-0.2 0.5-0.5 0.5h-1872c-0.3 0-0.5-0.2-0.5-0.5v-377c0-0.3 0.2-0.5 0.5-0.5z" />
	<path id="jioSaavn-dl" fill="#2a2c36" aria-label="jioSaavn-dl"  d="m154.13 113.22h30.09v31.35h-30.09zm30.09 62.69v141.07h-15.05v15.67h-15.04v15.67h-60.19v-31.34h45.14v-15.68h15.05v-94.04h-30.1v-31.35zm108.5-31.35h30.09v31.35h-30.09zm45.14 156.74v15.67h15.05v31.35h-30.1v-15.67h-15.04v-15.68h-15.05v-78.37h-30.09v-31.34h60.18v94.04zm108.5 0v15.67h60.19v-15.67h15.05v-78.37h-15.05v-15.67h-60.19v15.67h-15.05v78.37zm75.24 47.02h-90.28v-15.67h-15.05v-15.68h-15.05v-109.71h15.05v-15.68h15.05v-15.67h90.28v15.67h15.05v15.68h15.04v109.71h-15.04v15.68h-15.05zm183.73-203.76v15.67h15.05v31.35h-30.1v-15.67h-15.04v-15.68h-60.19v15.68h-15.05v31.34h15.05v15.68h75.23v15.67h15.05v15.67h15.05v62.7h-15.05v15.67h-15.05v15.68h-90.28v-15.68h-15.04v-15.67h-15.05v-31.35h30.09v15.68h15.05v15.67h60.19v-15.67h15.04v-31.35h-15.04v-15.68h-75.24v-15.67h-15.04v-15.67h-15.05v-62.7h15.05v-15.67h15.04v-15.68h90.28v15.68zm78.41 156.74v15.67h60.19v-15.67h15.04v-31.35h-15.04v-15.68h-60.19v15.68h-15.05v31.35zm60.19 47.02h-75.24v-15.68h-15.04v-15.67h-15.05v-62.7h15.05v-15.67h15.04v-15.67h75.24v15.67h15.05v-31.35h-15.05v-15.67h-75.24v-31.35h90.29v15.68h15.04v15.67h15.05v156.74h-30.09v-15.68h-15.05zm108.5-47.02v15.68h60.18v-15.68h15.05v-31.35h-15.05v-15.67h-60.18v15.67h-15.05v31.35zm60.19 47.02h-75.24v-15.67h-15.04v-15.67h-15.05v-62.7h15.05v-15.67h15.04v-15.68h75.24v15.68h15.04v-31.35h-15.04v-15.67h-75.24v-31.35h90.28v15.67h15.05v15.68h15.05v156.73h-30.1v-15.67h-15.04zm63.36-62.7v-109.71h30.09v94.04h15.05v15.67h15.04v15.68h30.1v-15.68h15.04v-15.67h15.05v-94.04h30.09v109.71h-15.04v15.68h-15.05v15.67h-15.05v15.68h-15.04v15.67h-30.1v-15.67h-15.04v-15.68h-15.05v-15.67h-15.05v-15.68zm213.83-62.69h-15.05v125.39h-30.09v-172.41h30.09v15.67h15.05v-15.67h75.23v15.67h15.05v15.68h15.05v141.06h-30.1v-125.39h-15.04v-15.67h-60.19zm138.59 0h120.37v31.34h-120.37zm258.97-15.67h15.04v-78.37h30.1v219.43h-30.1v-31.34h-15.04v15.67h-15.05v15.67h-45.14v-15.67h-15.05v-15.67h-15.04v-15.68h-15.05v-78.37h15.05v-15.67h15.04v-15.67h15.05v-15.68h45.14v15.68h15.05zm-60.19 78.36v15.68h15.05v15.67h15.04v-15.67h15.05v-15.68h15.05v-47.02h-15.05v-15.67h-15.05v-15.67h-15.04v15.67h-15.05v15.67h-15.05v47.02zm183.73-156.73h30.1v219.43h-30.1z" />
	<path id="jioSaavn-dl" fill="#ffffff" aria-label="jioSaavn-dl"  d="m134.13 99.22h30.09v31.35h-30.09zm30.09 62.69v141.07h-15.05v15.67h-15.04v15.67h-60.19v-31.34h45.14v-15.68h15.05v-94.04h-30.1v-31.35zm108.5-31.35h30.09v31.35h-30.09zm45.14 156.74v15.67h15.05v31.35h-30.1v-15.67h-15.04v-15.68h-15.05v-78.37h-30.09v-31.34h60.18v94.04zm108.5 0v15.67h60.19v-15.67h15.05v-78.37h-15.05v-15.67h-60.19v15.67h-15.05v78.37zm75.24 47.02h-90.28v-15.67h-15.05v-15.68h-15.05v-109.71h15.05v-15.68h15.05v-15.67h90.28v15.67h15.05v15.68h15.04v109.71h-15.04v15.68h-15.05zm183.73-203.76v15.67h15.05v31.35h-30.1v-15.67h-15.04v-15.68h-60.19v15.68h-15.05v31.34h15.05v15.68h75.23v15.67h15.05v15.67h15.05v62.7h-15.05v15.67h-15.05v15.68h-90.28v-15.68h-15.04v-15.67h-15.05v-31.35h30.09v15.68h15.05v15.67h60.19v-15.67h15.04v-31.35h-15.04v-15.68h-75.24v-15.67h-15.04v-15.67h-15.05v-62.7h15.05v-15.67h15.04v-15.68h90.28v15.68zm78.41 156.74v15.67h60.19v-15.67h15.04v-31.35h-15.04v-15.68h-60.19v15.68h-15.05v31.35zm60.19 47.02h-75.24v-15.68h-15.04v-15.67h-15.05v-62.7h15.05v-15.67h15.04v-15.67h75.24v15.67h15.05v-31.35h-15.05v-15.67h-75.24v-31.35h90.29v15.68h15.04v15.67h15.05v156.74h-30.09v-15.68h-15.05zm108.5-47.02v15.68h60.18v-15.68h15.05v-31.35h-15.05v-15.67h-60.18v15.67h-15.05v31.35zm60.19 47.02h-75.24v-15.67h-15.04v-15.67h-15.05v-62.7h15.05v-15.67h15.04v-15.68h75.24v15.68h15.04v-31.35h-15.04v-15.67h-75.24v-31.35h90.28v15.67h15.05v15.68h15.05v156.73h-30.1v-15.67h-15.04zm63.36-62.7v-109.71h30.09v94.04h15.05v15.67h15.04v15.68h30.1v-15.68h15.04v-15.67h15.05v-94.04h30.09v109.71h-15.04v15.68h-15.05v15.67h-15.05v15.68h-15.04v15.67h-30.1v-15.67h-15.04v-15.68h-15.05v-15.67h-15.05v-15.68zm213.83-62.69h-15.05v125.39h-30.09v-172.41h30.09v15.67h15.05v-15.67h75.23v15.67h15.05v15.68h15.05v141.06h-30.1v-125.39h-15.04v-15.67h-60.19zm138.59 0h120.37v31.34h-120.37zm258.97-15.67h15.04v-78.37h30.1v219.43h-30.1v-31.34h-15.04v15.67h-15.05v15.67h-45.14v-15.67h-15.05v-15.67h-15.04v-15.68h-15.05v-78.37h15.05v-15.67h15.04v-15.67h15.05v-15.68h45.14v15.68h15.05zm-60.19 78.36v15.68h15.05v15.67h15.04v-15.67h15.05v-15.68h15.05v-47.02h-15.05v-15.67h-15.05v-15.67h-15.04v15.67h-15.05v15.67h-15.05v47.02zm183.73-156.73h30.1v219.43h-30.1z" />
</svg>